<svg id="Layer_2" data-name="Layer 2" xmlns="http://www.w3.org/2000/svg" viewBox="0 0 37.31 30.63"><defs><style>.cls-1{fill:#fff;}</style></defs><title>yJ1qDxAis</title><path class="cls-1" d="M32.91,28.5h-19c-.32,0-.73-.46-.73-1.21,0-.58.41-1.12.73-1.12H33.05l4.72-15.61H10.09L8.82,5.9l-.06-.23h0a1,1,0,0,0-.55-.45v0L1.55,4.43l-.22,0v0a1,1,0,0,0,0,1.92L7.13,7l5.24,17.6c-.72.46-1.16,1.12-1.16,2.66,0,1.75.78,2.77,1.86,3.05a3.27,3.27,0,1,0,5.92.08h6.32a3.27,3.27,0,1,0,6,0h1.63a1,1,0,1,0,0-1.93Zm-3.27,3.27a1.34,1.34,0,1,1-1.34-1.34A1.34,1.34,0,0,1,29.64,31.77Zm-12.28,0A1.34,1.34,0,1,1,16,30.43,1.34,1.34,0,0,1,17.36,31.77ZM10.62,12.49H35.24L31.59,24.25H14.27Z" transform="translate(-0.47 -4.4)"/></svg>